REM DIRINDEX 1\2,1\3,1\4,1\6,1\5\7,1\5\8
REM DIRNAME folder01,folder02,folder03,folder04,folder05,folder06,folder07,folder08
TITLE ""
FILE "DB4500_5th_6C_50.mp3" MP3
  TRACK 01 AUDIO
    TITLE "0:"
    INDEX 01 00:00:00
  TRACK 02 AUDIO
    TITLE "2:cjc114_5108"
    INDEX 01 00:00:07
  TRACK 03 AUDIO
    TITLE "0:"
    INDEX 01 00:01:38
  TRACK 04 AUDIO
    TITLE "3:cjc114_5109"
    INDEX 01 00:01:40
  TRACK 05 AUDIO
    TITLE "0:"
    INDEX 01 00:02:32
  TRACK 06 AUDIO
    TITLE "4:cjc114_5110"
    INDEX 01 00:02:34
  TRACK 07 AUDIO
    TITLE "0:"
    INDEX 01 00:07:27
  TRACK 08 AUDIO
    TITLE "2:cjc114_5111"
    INDEX 01 00:07:68
  TRACK 09 AUDIO
    TITLE "0:"
    INDEX 01 00:09:00
  TRACK 10 AUDIO
    TITLE "3:cjc114_5112"
    INDEX 01 00:09:02
  TRACK 11 AUDIO
    TITLE "0:"
    INDEX 01 00:10:16
  TRACK 12 AUDIO
    TITLE "4:cjc114_5113"
    INDEX 01 00:10:18
  TRACK 13 AUDIO
    TITLE "0:"
    INDEX 01 00:14:27
  TRACK 14 AUDIO
    TITLE "2:cjc114_5114"
    INDEX 01 00:14:70
  TRACK 15 AUDIO
    TITLE "0:"
    INDEX 01 00:16:12
  TRACK 16 AUDIO
    TITLE "3:cjc114_5115"
    INDEX 01 00:16:14
  TRACK 17 AUDIO
    TITLE "0:"
    INDEX 01 00:17:41
  TRACK 18 AUDIO
    TITLE "4:cjc114_5116"
    INDEX 01 00:17:43
  TRACK 19 AUDIO
    TITLE "0:"
    INDEX 01 00:21:60
  TRACK 20 AUDIO
    TITLE "2:cjc114_5117"
    INDEX 01 00:22:34
  TRACK 21 AUDIO
    TITLE "0:"
    INDEX 01 00:23:51
  TRACK 22 AUDIO
    TITLE "3:cjc114_5118"
    INDEX 01 00:23:53
  TRACK 23 AUDIO
    TITLE "0:"
    INDEX 01 00:24:37
  TRACK 24 AUDIO
    TITLE "4:cjc114_5119"
    INDEX 01 00:24:39
  TRACK 25 AUDIO
    TITLE "0:"
    INDEX 01 00:27:30
  TRACK 26 AUDIO
    TITLE "2:cjc114_5120"
    INDEX 01 00:27:71
  TRACK 27 AUDIO
    TITLE "0:"
    INDEX 01 00:29:01
  TRACK 28 AUDIO
    TITLE "3:cjc114_5121"
    INDEX 01 00:29:03
  TRACK 29 AUDIO
    TITLE "0:"
    INDEX 01 00:30:10
  TRACK 30 AUDIO
    TITLE "4:cjc114_5122"
    INDEX 01 00:30:12
  TRACK 31 AUDIO
    TITLE "0:"
    INDEX 01 00:34:28
  TRACK 32 AUDIO
    TITLE "2:cjc114_5123"
    INDEX 01 00:34:71
  TRACK 33 AUDIO
    TITLE "0:"
    INDEX 01 00:36:19
  TRACK 34 AUDIO
    TITLE "3:cjc114_5124"
    INDEX 01 00:36:21
  TRACK 35 AUDIO
    TITLE "0:"
    INDEX 01 00:37:24
  TRACK 36 AUDIO
    TITLE "4:cjc114_5125"
    INDEX 01 00:37:26
  TRACK 37 AUDIO
    TITLE "0:"
    INDEX 01 00:41:12
  TRACK 38 AUDIO
    TITLE "2:cjc114_5126"
    INDEX 01 00:41:55
  TRACK 39 AUDIO
    TITLE "0:"
    INDEX 01 00:42:70
  TRACK 40 AUDIO
    TITLE "3:cjc114_5127"
    INDEX 01 00:42:72
  TRACK 41 AUDIO
    TITLE "0:"
    INDEX 01 00:44:22
  TRACK 42 AUDIO
    TITLE "4:cjc114_5128"
    INDEX 01 00:44:24
  TRACK 43 AUDIO
    TITLE "0:"
    INDEX 01 00:47:36
  TRACK 44 AUDIO
    TITLE "2:cjc114_5129"
    INDEX 01 00:48:04
  TRACK 45 AUDIO
    TITLE "0:"
    INDEX 01 00:49:06
  TRACK 46 AUDIO
    TITLE "3:cjc114_5130"
    INDEX 01 00:49:16
  TRACK 47 AUDIO
    TITLE "0:"
    INDEX 01 00:50:41
  TRACK 48 AUDIO
    TITLE "4:cjc114_5131"
    INDEX 01 00:50:54
  TRACK 49 AUDIO
    TITLE "0:"
    INDEX 01 00:55:55
  TRACK 50 AUDIO
    TITLE "2:cjc114_5132"
    INDEX 01 00:56:27
  TRACK 51 AUDIO
    TITLE "0:"
    INDEX 01 00:57:17
  TRACK 52 AUDIO
    TITLE "3:cjc114_5133"
    INDEX 01 00:57:27
  TRACK 53 AUDIO
    TITLE "0:"
    INDEX 01 00:59:02
  TRACK 54 AUDIO
    TITLE "4:cjc114_5134"
    INDEX 01 00:59:04
  TRACK 55 AUDIO
    TITLE "0:"
    INDEX 01 01:02:24
  TRACK 56 AUDIO
    TITLE "2:cjc114_5135"
    INDEX 01 01:02:67
  TRACK 57 AUDIO
    TITLE "0:"
    INDEX 01 01:04:01
  TRACK 58 AUDIO
    TITLE "3:cjc114_5136"
    INDEX 01 01:04:03
  TRACK 59 AUDIO
    TITLE "0:"
    INDEX 01 01:05:21
  TRACK 60 AUDIO
    TITLE "4:cjc114_5137"
    INDEX 01 01:05:22
  TRACK 61 AUDIO
    TITLE "0:"
    INDEX 01 01:08:33
  TRACK 62 AUDIO
    TITLE "2:cjc114_5138"
    INDEX 01 01:09:03
  TRACK 63 AUDIO
    TITLE "0:"
    INDEX 01 01:10:00
  TRACK 64 AUDIO
    TITLE "3:cjc114_5139"
    INDEX 01 01:10:02
  TRACK 65 AUDIO
    TITLE "0:"
    INDEX 01 01:11:13
  TRACK 66 AUDIO
    TITLE "4:cjc114_5140"
    INDEX 01 01:11:15
  TRACK 67 AUDIO
    TITLE "0:"
    INDEX 01 01:13:20
